HIERARCHY
ROOT root
{
	OFFSET 0.000000 0.000000 0.000000
	CHANNELS 6 Xposition Yposition Zposition Zrotation Yrotation Xrotation
	JOINT lhip
	{
		OFFSET 0.058581 -0.082280 -0.017664
		CHANNELS 3 Zrotation Yrotation Xrotation
		JOINT lknee
		{
			OFFSET 0.043451 -0.386469 0.008037
			CHANNELS 3 Zrotation Yrotation Xrotation
			JOINT lankle
			{
				OFFSET -0.014790 -0.426874 -0.037428
				CHANNELS 3 Zrotation Yrotation Xrotation
				JOINT ltoe
				{
					OFFSET 0.041054 -0.060286 0.122042
					CHANNELS 3 Zrotation Yrotation Xrotation
					End Site
					{
						OFFSET 0.000000 0.000000 0.000000
					}
				}
			}
		}
	}
	JOINT rhip
	{
		OFFSET -0.060310 -0.090513 -0.013543
		CHANNELS 3 Zrotation Yrotation Xrotation
		JOINT rknee
		{
			OFFSET -0.043257 -0.383688 -0.004843
			CHANNELS 3 Zrotation Yrotation Xrotation
			JOINT rankle
			{
				OFFSET 0.019056 -0.420046 -0.034562
				CHANNELS 3 Zrotation Yrotation Xrotation
				JOINT rtoe
				{
					OFFSET -0.034840 -0.062106 0.130323
					CHANNELS 3 Zrotation Yrotation Xrotation
					End Site
					{
						OFFSET 0.000000 0.000000 0.000000
					}
				}
			}
		}
	}
	JOINT lowerback
	{
		OFFSET 0.004439 0.124404 -0.038385
		CHANNELS 3 Zrotation Yrotation Xrotation
		JOINT upperback
		{
			OFFSET 0.004488 0.137956 0.026820
			CHANNELS 3 Zrotation Yrotation Xrotation
			JOINT chest
			{
				OFFSET -0.002265 0.056032 0.002855
				CHANNELS 3 Zrotation Yrotation Xrotation
				JOINT lowerneck
				{
					OFFSET -0.013390 0.211636 -0.033468
					CHANNELS 3 Zrotation Yrotation Xrotation
					JOINT upperneck
					{
						OFFSET 0.010113 0.088937 0.050410
						CHANNELS 3 Zrotation Yrotation Xrotation
						End Site
						{
							OFFSET 0.000000 0.000000 0.000000
						}
					}
				}
				JOINT lclavicle
				{
					OFFSET 0.071702 0.114000 -0.018898
					CHANNELS 3 Zrotation Yrotation Xrotation
					JOINT lshoulder
					{
						OFFSET 0.122921 0.045205 -0.019046
						CHANNELS 3 Zrotation Yrotation Xrotation
						JOINT lelbow
						{
							OFFSET 0.255332 -0.015649 -0.022946
							CHANNELS 3 Zrotation Yrotation Xrotation
							JOINT lwrist
							{
								OFFSET 0.265709 0.012698 -0.007375
								CHANNELS 3 Zrotation Yrotation Xrotation
								End Site
								{
									OFFSET 0.000000 0.000000 0.000000
								}
							}
						}
					}
				}
				JOINT rclavicle
				{
					OFFSET -0.082954 0.112472 -0.023707
					CHANNELS 3 Zrotation Yrotation Xrotation
					JOINT rshoulder
					{
						OFFSET -0.113228 0.046853 -0.008472
						CHANNELS 3 Zrotation Yrotation Xrotation
						JOINT relbow
						{
							OFFSET -0.260127 -0.014369 -0.031269
							CHANNELS 3 Zrotation Yrotation Xrotation
							JOINT rwrist
							{
								OFFSET -0.269108 0.006794 -0.006027
								CHANNELS 3 Zrotation Yrotation Xrotation
								End Site
								{
									OFFSET 0.000000 0.000000 0.000000
								}
							}
						}
					}
				}
			}
		}
	}
}
MOTION
Frames: 15
Frame Time: 0.033333
0.479085 0.762367 0.976886 -88.889632 3.500656 86.924729 3.371899 -0.363751 3.166678 -2.869338 -14.824543 5.457686 7.418223 9.165168 -19.259210 0.000000 -0.000000 0.000000 1.319105 -2.380805 0.340246 2.867706 3.101459 10.630596 1.731315 -2.800373 -15.311072 0.000000 -0.000000 0.000000 -2.146309 2.944741 5.923963 1.638794 -1.551732 2.046730 1.639995 -0.874853 2.206739 3.350572 5.474182 13.036845 4.280359 3.428063 3.958638 -24.700995 2.345173 5.693389 -63.744195 -6.180719 7.783740 11.874689 -22.850011 5.993651 -2.634388 -0.118217 -8.039003 22.786400 -0.829745 5.346628 64.022171 3.169747 10.126360 -15.106162 23.770146 -1.015040 7.341142 -0.274290 -9.426348 
0.479089 0.762377 0.976833 -88.822204 3.523599 86.928501 3.423324 -0.438932 3.197375 -2.892151 -14.773417 5.378089 7.337883 9.052327 -19.217526 0.000000 -0.000000 0.000000 1.334042 -2.379236 0.414031 2.835112 2.918401 10.490994 1.747499 -2.706554 -15.187739 0.000000 -0.000000 0.000000 -2.062826 2.928597 6.026657 1.569131 -1.514767 1.815483 1.625796 -0.918517 2.297524 3.330737 5.543319 12.792182 4.199768 3.372434 4.122477 -24.606725 2.377780 5.645180 -63.802539 -6.157068 7.801453 11.792101 -22.826619 6.175736 -2.668354 -0.301160 -7.990769 22.657210 -0.889810 5.261032 64.203400 3.153671 10.186395 -15.219422 23.957408 -0.831724 7.332036 -0.212811 -9.626181 
0.479041 0.762384 0.976818 -88.791814 3.549574 86.963607 3.446293 -0.446780 3.173268 -2.869778 -14.738784 5.328908 7.355752 9.030668 -19.234974 0.000000 -0.000000 0.000000 1.334730 -2.418578 0.370468 2.877280 2.904017 10.491555 1.731866 -2.641181 -15.220609 0.000000 -0.000000 0.000000 -2.024810 2.916683 5.986641 1.544656 -1.513430 1.753966 1.620734 -0.903869 2.335251 3.365865 5.545199 12.740864 4.193907 3.346613 4.191176 -24.551644 2.422264 5.611329 -63.898465 -6.121338 7.880429 11.749315 -22.989524 6.332015 -2.631908 -0.383431 -8.011933 22.593971 -0.948234 5.184312 64.263933 3.202887 10.177142 -15.147599 23.964205 -0.734991 7.315560 -0.103634 -9.640262 
0.479072 0.762332 0.976879 -88.821288 3.562966 86.965239 3.464678 -0.450217 3.222374 -2.845920 -14.676370 5.239464 7.344481 8.989216 -19.193805 0.000000 -0.000000 0.000000 1.361857 -2.392960 0.380247 2.855254 2.901525 10.461253 1.751217 -2.565627 -15.233565 0.000000 -0.000000 0.000000 -1.975541 2.945091 5.969384 1.526726 -1.433121 1.728696 1.583533 -0.895022 2.360578 3.451759 5.521401 12.695230 4.202695 3.337483 4.260693 -24.592300 2.433779 5.523806 -63.902083 -6.192020 7.932294 11.723310 -23.227578 6.283555 -2.650859 -0.480829 -7.931427 22.555369 -0.911395 5.171797 64.314373 3.311301 10.205981 -15.142139 24.006591 -0.856492 7.302239 -0.072104 -9.716916 
0.479070 0.762282 0.976870 -88.838102 3.540221 86.984218 3.435371 -0.430209 3.175667 -2.859734 -14.685739 5.281706 7.380715 8.997707 -19.145484 0.000000 -0.000000 0.000000 1.349865 -2.414667 0.260373 2.821660 2.886568 10.638421 1.742754 -2.575488 -15.246026 0.000000 -0.000000 0.000000 -1.993812 2.953080 5.965801 1.528358 -1.422265 1.696833 1.591099 -0.866626 2.308603 3.401229 5.530301 12.700830 4.206780 3.379561 4.227606 -24.603007 2.405487 5.597088 -63.972560 -6.182388 7.942785 11.748065 -23.386047 6.244233 -2.650742 -0.396437 -7.967144 22.523970 -0.892003 5.192279 64.369757 3.279800 10.221393 -15.255050 24.170297 -0.841642 7.373021 -0.127528 -9.699191 
0.479081 0.762271 0.976958 -88.820806 3.556320 86.959481 3.462332 -0.447829 3.171583 -2.888642 -14.661894 5.354421 7.427322 9.012760 -19.210889 0.000000 -0.000000 0.000000 1.366747 -2.421348 0.371937 2.796755 2.847534 10.490976 1.740765 -2.506223 -15.170240 0.000000 -0.000000 0.000000 -1.978924 2.962501 5.998980 1.531532 -1.444086 1.701550 1.596267 -0.849820 2.262810 3.401468 5.521322 12.773961 4.231729 3.391777 4.212081 -24.607825 2.392336 5.634366 -63.989512 -6.193485 7.985322 11.739706 -23.756938 6.394707 -2.696914 -0.391799 -7.986425 22.460440 -0.840206 5.174883 64.464620 3.293679 10.212476 -15.302172 24.413478 -0.808944 7.377625 -0.137658 -9.731739 
0.479329 0.762258 0.976916 -88.840008 3.550491 87.032138 3.463615 -0.485611 3.057589 -2.911795 -14.609114 5.381371 7.459297 9.001837 -19.227074 0.000000 -0.000000 0.000000 1.377679 -2.367480 0.203669 2.803679 2.859594 10.635130 1.728826 -2.615958 -15.223790 0.000000 -0.000000 0.000000 -1.984050 2.937540 5.968174 1.512425 -1.416900 1.650783 1.582832 -0.816095 2.287320 3.374983 5.504722 12.734404 4.219672 3.360742 4.247634 -24.511206 2.406921 5.565072 -64.137516 -6.257339 8.082649 11.664136 -24.005190 6.492688 -2.785946 -0.378619 -8.116014 22.420774 -0.830098 5.129754 64.522983 3.345099 10.297156 -15.229159 24.572398 -0.805583 7.464571 -0.214503 -9.860172 
0.479220 0.762247 0.976951 -88.765334 3.591200 86.948813 3.508010 -0.561590 3.160139 -2.919978 -14.623329 5.374979 7.410807 8.995032 -19.260029 0.000000 -0.000000 0.000000 1.414176 -2.360742 0.406959 2.823663 2.815393 10.435690 1.677404 -2.690208 -15.224388 0.000000 -0.000000 0.000000 -1.986039 2.984585 5.928755 1.550502 -1.446912 1.876019 1.610712 -0.835308 2.304930 3.378114 5.527883 12.782975 4.226496 3.413811 4.232906 -24.573992 2.223766 5.610906 -64.101665 -6.403838 8.133036 11.663181 -24.331595 6.428027 -3.045677 -0.496388 -8.214623 22.433024 -0.745184 5.117471 64.450018 3.385107 10.311737 -15.129120 24.824330 -0.828261 7.794567 -0.194590 -10.088506 
0.479271 0.762175 0.976985 -88.771994 3.546871 87.072427 3.441815 -0.517301 3.009858 -2.900606 -14.613960 5.418087 7.353626 8.956533 -19.241757 0.000000 -0.000000 0.000000 1.378742 -2.331786 0.183113 2.789337 2.800057 10.640238 1.718567 -2.636505 -15.328914 0.000000 -0.000000 0.000000 -2.034891 2.963406 6.030037 1.526269 -1.418068 1.522987 1.615871 -0.857061 2.345082 3.407204 5.581147 12.524541 4.215049 3.352669 4.377611 -24.538866 2.301882 5.525385 -64.142640 -6.356376 8.290200 11.526606 -24.504589 6.802893 -2.661180 -0.747425 -8.073991 22.438518 -0.877283 5.026486 64.458152 3.337658 10.384098 -15.071542 24.990168 -0.683297 7.474059 0.083831 -9.940007 
0.479174 0.762040 0.977039 -88.735907 3.555723 87.099761 3.428177 -0.554994 2.992304 -2.875092 -14.622601 5.436321 7.383650 8.927292 -19.281975 0.000000 -0.000000 0.000000 1.371739 -2.324007 0.198482 2.794482 2.785647 10.565785 1.768218 -2.679360 -15.256001 0.000000 -0.000000 0.000000 -2.035834 2.939721 6.066041 1.512656 -1.399816 1.463975 1.624182 -0.824826 2.360723 3.426136 5.552890 12.486857 4.243497 3.351105 4.407883 -24.592638 2.277456 5.499156 -64.071582 -6.432930 8.342398 11.409830 -24.870458 6.904007 -2.738961 -0.663644 -8.117024 22.413258 -0.853235 5.072347 64.526319 3.284602 10.387008 -15.138650 25.098955 -0.741270 7.555235 0.116903 -9.941804 
0.478847 0.762132 0.977057 -88.687601 3.549691 86.999370 3.454986 -0.528478 3.171727 -2.905146 -14.717933 5.319193 7.370035 8.922383 -19.239547 0.000000 -0.000000 0.000000 1.366068 -2.418174 0.369458 2.766082 2.786971 10.535709 1.789875 -2.602521 -15.275004 0.000000 -0.000000 0.000000 -2.103149 2.944241 6.134437 1.533624 -1.433575 1.553654 1.650738 -0.831456 2.306044 3.389699 5.598305 12.594283 4.251065 3.374008 4.390476 -24.531443 2.207605 5.525689 -64.150022 -6.514803 8.359917 11.449332 -25.003643 6.933982 -2.752006 -0.782217 -8.195910 22.387368 -0.834021 5.041939 64.545416 3.242660 10.386772 -15.082030 25.091504 -0.614039 7.551955 0.115972 -9.912255 
0.478808 0.762059 0.977030 -88.744304 3.582403 87.057312 3.452584 -0.530755 3.082636 -2.878149 -14.674908 5.404131 7.413122 8.954445 -19.300763 0.000000 -0.000000 0.000000 1.381943 -2.344413 0.298136 2.805125 2.767367 10.538150 1.742013 -2.665013 -15.300544 0.000000 -0.000000 0.000000 -2.072596 2.908216 6.120662 1.525436 -1.432684 1.538835 1.635102 -0.848035 2.281506 3.391108 5.593775 12.542626 4.253784 3.382918 4.416247 -24.528240 2.111866 5.625838 -64.152812 -6.496398 8.384687 11.553455 -25.149789 6.852438 -2.652279 -0.888901 -8.232413 22.343324 -0.743151 5.098736 64.586126 3.212250 10.388297 -15.060872 25.066081 -0.606473 7.534676 0.127381 -9.975125 
0.478829 0.762095 0.977017 -88.783670 3.585183 87.120129 3.442897 -0.627860 2.978676 -2.889346 -14.592313 5.491743 7.401463 9.067526 -19.212258 0.000000 -0.000000 0.000000 1.408902 -2.276646 0.196457 2.777941 2.771315 10.578012 1.751071 -2.711888 -15.258525 0.000000 -0.000000 0.000000 -2.075946 2.932788 6.112531 1.525066 -1.421597 1.507646 1.610682 -0.868329 2.301326 3.399617 5.577732 12.491855 4.260433 3.396967 4.467278 -24.476662 2.058711 5.629909 -64.111100 -6.552626 8.424092 11.553538 -25.230180 6.818067 -2.796446 -0.889157 -8.386616 22.341176 -0.747890 5.095406 64.629406 3.180472 10.423501 -15.108845 25.014298 -0.658142 7.578570 0.133388 -10.049430 
0.478470 0.761989 0.977090 -88.805702 3.612190 87.157148 3.463662 -0.558821 3.015314 -2.858866 -14.627985 5.403234 7.415170 9.025598 -19.261056 0.000000 -0.000000 0.000000 1.437694 -2.314569 0.203484 2.767447 2.842082 10.525847 1.760694 -2.710615 -15.243116 0.000000 -0.000000 0.000000 -2.051670 2.902936 6.107636 1.518824 -1.403337 1.439217 1.609044 -0.899930 2.354112 3.366147 5.586296 12.440504 4.251602 3.415264 4.495374 -24.441345 2.085377 5.573383 -64.055653 -6.568147 8.429933 11.381994 -25.169867 6.923941 -2.707989 -0.849082 -8.399207 22.352394 -0.815905 5.048685 64.594212 3.149727 10.421075 -15.045458 24.896589 -0.620608 7.631746 0.090075 -10.008220 
0.478333 0.761989 0.977016 -88.838201 3.609836 87.214436 3.462705 -0.560553 2.946729 -2.886892 -14.637009 5.452883 7.407781 9.065612 -19.260428 0.000000 -0.000000 0.000000 1.427697 -2.331989 0.145059 2.789271 2.915989 10.524839 1.794024 -2.739136 -15.274223 0.000000 -0.000000 0.000000 -2.116997 2.964821 6.027294 1.559164 -1.410332 1.512601 1.623615 -0.931232 2.440522 3.369822 5.597324 12.449978 4.256604 3.409998 4.482339 -24.433965 2.068453 5.518841 -64.007377 -6.685092 8.458341 11.406060 -25.209806 6.952813 -2.685205 -0.782800 -8.375270 22.374553 -0.854360 5.012985 64.519152 3.149959 10.451912 -14.986221 24.893105 -0.591748 7.613361 -0.018514 -10.031638 
